<mxfile host="Electron" modified="2023-10-08T23:56:47.434Z" agent="Mozilla/5.0 (Windows NT 10.0; Win64; x64) AppleWebKit/537.36 (KHTML, like Gecko) draw.io/21.8.2 Chrome/114.0.5735.289 Electron/25.8.1 Safari/537.36" etag="GLn2xfq27Wm426hYW1KE" version="21.8.2" type="device">
  <diagram name="PÃ¡gina-1" id="r15q4L53GGiUi_npG-th">
    <mxGraphModel dx="2555" dy="2185" grid="1" gridSize="10" guides="1" tooltips="1" connect="1" arrows="1" fold="1" page="1" pageScale="1" pageWidth="827" pageHeight="1169" background="#FFFFFF" math="0" shadow="0">
      <root>
        <mxCell id="0" />
        <mxCell id="1" parent="0" />
        <mxCell id="x8Gvvk_AcixEFcGuTGX2-1" value="Pacote" style="swimlane;fontStyle=1;align=center;verticalAlign=top;childLayout=stackLayout;horizontal=1;startSize=26;horizontalStack=0;resizeParent=1;resizeParentMax=0;resizeLast=0;collapsible=1;marginBottom=0;whiteSpace=wrap;html=1;strokeColor=#788AA3;fontColor=#46495D;fillColor=#B2C9AB;labelBackgroundColor=none;rounded=1;arcSize=22;" parent="1" vertex="1">
          <mxGeometry x="180" y="140" width="260" height="230" as="geometry" />
        </mxCell>
        <mxCell id="x8Gvvk_AcixEFcGuTGX2-2" value="&lt;font color=&quot;#000000&quot;&gt;+ idPacote: int&lt;br&gt;+ destino: Local&lt;br&gt;+ hospedagem: Hospedagem&lt;br&gt;+ passagem: Passagem&lt;br&gt;+ alugueisCarro: ArrayList&amp;lt;AluguelCarro&amp;gt;&lt;br&gt;+ seguros: ArrayList&amp;lt;Seguro&amp;gt;&lt;br&gt;+ atividades: ArrayList&amp;lt;Atividades&amp;gt;&lt;br&gt;+ preco: double&lt;br&gt;+ avaliacao: byte&lt;br&gt;&lt;/font&gt;" style="text;strokeColor=none;fillColor=none;align=left;verticalAlign=top;spacingLeft=4;spacingRight=4;overflow=hidden;rotatable=0;points=[[0,0.5],[1,0.5]];portConstraint=eastwest;whiteSpace=wrap;html=1;fontColor=#46495D;labelBackgroundColor=none;rounded=1;" parent="x8Gvvk_AcixEFcGuTGX2-1" vertex="1">
          <mxGeometry y="26" width="260" height="134" as="geometry" />
        </mxCell>
        <mxCell id="x8Gvvk_AcixEFcGuTGX2-3" value="" style="line;strokeWidth=1;fillColor=none;align=left;verticalAlign=middle;spacingTop=-1;spacingLeft=3;spacingRight=3;rotatable=0;labelPosition=right;points=[];portConstraint=eastwest;strokeColor=#788AA3;fontColor=#46495D;labelBackgroundColor=none;rounded=1;" parent="x8Gvvk_AcixEFcGuTGX2-1" vertex="1">
          <mxGeometry y="160" width="260" height="8" as="geometry" />
        </mxCell>
        <mxCell id="x8Gvvk_AcixEFcGuTGX2-4" value="&lt;font color=&quot;#000000&quot;&gt;+ avaliar(byte avalicao): void&lt;br&gt;+ adicionarAtividade(Atividade atividade): void&lt;br&gt;+ adicionarSeguro(Seguro seguro): void&amp;nbsp;&lt;/font&gt;" style="text;strokeColor=none;fillColor=none;align=left;verticalAlign=top;spacingLeft=4;spacingRight=4;overflow=hidden;rotatable=0;points=[[0,0.5],[1,0.5]];portConstraint=eastwest;whiteSpace=wrap;html=1;fontColor=#46495D;labelBackgroundColor=none;rounded=1;" parent="x8Gvvk_AcixEFcGuTGX2-1" vertex="1">
          <mxGeometry y="168" width="260" height="62" as="geometry" />
        </mxCell>
        <mxCell id="x8Gvvk_AcixEFcGuTGX2-5" value="Hospedagem" style="swimlane;fontStyle=1;align=center;verticalAlign=top;childLayout=stackLayout;horizontal=1;startSize=26;horizontalStack=0;resizeParent=1;resizeParentMax=0;resizeLast=0;collapsible=1;marginBottom=0;whiteSpace=wrap;html=1;strokeColor=#788AA3;fontColor=#46495D;fillColor=#B2C9AB;rounded=1;" parent="1" vertex="1">
          <mxGeometry x="510" y="-10" width="180" height="180" as="geometry" />
        </mxCell>
        <mxCell id="x8Gvvk_AcixEFcGuTGX2-6" value="&lt;font color=&quot;#000000&quot;&gt;+ int idHospedagem&lt;br&gt;+ String nome&lt;br&gt;+ Usuario usuario&lt;br&gt;+ String endereco&lt;br&gt;+ Local local&lt;br&gt;+ double diaria&lt;br&gt;+ byte avaliacao&lt;br&gt;&lt;br&gt;&lt;/font&gt;" style="text;strokeColor=none;fillColor=none;align=left;verticalAlign=top;spacingLeft=4;spacingRight=4;overflow=hidden;rotatable=0;points=[[0,0.5],[1,0.5]];portConstraint=eastwest;whiteSpace=wrap;html=1;fontColor=#46495D;rounded=1;" parent="x8Gvvk_AcixEFcGuTGX2-5" vertex="1">
          <mxGeometry y="26" width="180" height="114" as="geometry" />
        </mxCell>
        <mxCell id="x8Gvvk_AcixEFcGuTGX2-7" value="" style="line;strokeWidth=1;fillColor=none;align=left;verticalAlign=middle;spacingTop=-1;spacingLeft=3;spacingRight=3;rotatable=0;labelPosition=right;points=[];portConstraint=eastwest;strokeColor=inherit;fontColor=#46495D;rounded=1;" parent="x8Gvvk_AcixEFcGuTGX2-5" vertex="1">
          <mxGeometry y="140" width="180" height="8" as="geometry" />
        </mxCell>
        <mxCell id="x8Gvvk_AcixEFcGuTGX2-8" value="&lt;font color=&quot;#000000&quot;&gt;+ avaliar(byte avaliacao): void&lt;/font&gt;" style="text;strokeColor=none;fillColor=none;align=left;verticalAlign=top;spacingLeft=4;spacingRight=4;overflow=hidden;rotatable=0;points=[[0,0.5],[1,0.5]];portConstraint=eastwest;whiteSpace=wrap;html=1;fontColor=#46495D;rounded=1;" parent="x8Gvvk_AcixEFcGuTGX2-5" vertex="1">
          <mxGeometry y="148" width="180" height="32" as="geometry" />
        </mxCell>
        <mxCell id="x8Gvvk_AcixEFcGuTGX2-10" value="&amp;lt;&amp;lt;Abstract&amp;gt;&amp;gt;&lt;br&gt;&lt;i&gt;Passagem&lt;/i&gt;" style="swimlane;fontStyle=1;align=center;verticalAlign=top;childLayout=stackLayout;horizontal=1;startSize=39;horizontalStack=0;resizeParent=1;resizeParentMax=0;resizeLast=0;collapsible=1;marginBottom=0;whiteSpace=wrap;html=1;rounded=1;strokeColor=#788AA3;fontColor=#46495D;fillColor=#B2C9AB;" parent="1" vertex="1">
          <mxGeometry x="5" y="460" width="160" height="194" as="geometry" />
        </mxCell>
        <mxCell id="x8Gvvk_AcixEFcGuTGX2-11" value="&lt;font color=&quot;#000000&quot;&gt;+ idPassagem: int&lt;br&gt;+ partida: Local&lt;br&gt;+ destino: Local&lt;br&gt;+ saida: LocalDateTime&lt;br&gt;+ chegada: LocalDateTime&lt;br&gt;+ duracao: double&lt;br&gt;+ companhia: String&lt;br&gt;+ preco: byte&lt;br&gt;&lt;br&gt;&lt;br&gt;&lt;/font&gt;" style="text;strokeColor=none;fillColor=none;align=left;verticalAlign=top;spacingLeft=4;spacingRight=4;overflow=hidden;rotatable=0;points=[[0,0.5],[1,0.5]];portConstraint=eastwest;whiteSpace=wrap;html=1;fontColor=#46495D;" parent="x8Gvvk_AcixEFcGuTGX2-10" vertex="1">
          <mxGeometry y="39" width="160" height="121" as="geometry" />
        </mxCell>
        <mxCell id="x8Gvvk_AcixEFcGuTGX2-12" value="" style="line;strokeWidth=1;fillColor=none;align=left;verticalAlign=middle;spacingTop=-1;spacingLeft=3;spacingRight=3;rotatable=0;labelPosition=right;points=[];portConstraint=eastwest;strokeColor=inherit;rounded=1;fontColor=#46495D;" parent="x8Gvvk_AcixEFcGuTGX2-10" vertex="1">
          <mxGeometry y="160" width="160" height="8" as="geometry" />
        </mxCell>
        <mxCell id="x8Gvvk_AcixEFcGuTGX2-13" value="+ method(type): type" style="text;strokeColor=none;fillColor=none;align=left;verticalAlign=top;spacingLeft=4;spacingRight=4;overflow=hidden;rotatable=0;points=[[0,0.5],[1,0.5]];portConstraint=eastwest;whiteSpace=wrap;html=1;fontColor=#46495D;" parent="x8Gvvk_AcixEFcGuTGX2-10" vertex="1">
          <mxGeometry y="168" width="160" height="26" as="geometry" />
        </mxCell>
        <mxCell id="x8Gvvk_AcixEFcGuTGX2-15" value="PassagemOnibus" style="swimlane;fontStyle=1;align=center;verticalAlign=top;childLayout=stackLayout;horizontal=1;startSize=26;horizontalStack=0;resizeParent=1;resizeParentMax=0;resizeLast=0;collapsible=1;marginBottom=0;whiteSpace=wrap;html=1;rounded=1;strokeColor=#788AA3;fontColor=#46495D;fillColor=#B2C9AB;" parent="1" vertex="1">
          <mxGeometry x="-170" y="669" width="160" height="94" as="geometry" />
        </mxCell>
        <mxCell id="x8Gvvk_AcixEFcGuTGX2-16" value="&lt;font color=&quot;#000000&quot;&gt;+ enderecoPartida: String&lt;br&gt;+ enderecoChegada: String&lt;br&gt;&lt;/font&gt;" style="text;strokeColor=none;fillColor=none;align=left;verticalAlign=top;spacingLeft=4;spacingRight=4;overflow=hidden;rotatable=0;points=[[0,0.5],[1,0.5]];portConstraint=eastwest;whiteSpace=wrap;html=1;fontColor=#46495D;" parent="x8Gvvk_AcixEFcGuTGX2-15" vertex="1">
          <mxGeometry y="26" width="160" height="34" as="geometry" />
        </mxCell>
        <mxCell id="x8Gvvk_AcixEFcGuTGX2-17" value="" style="line;strokeWidth=1;fillColor=none;align=left;verticalAlign=middle;spacingTop=-1;spacingLeft=3;spacingRight=3;rotatable=0;labelPosition=right;points=[];portConstraint=eastwest;strokeColor=inherit;rounded=1;fontColor=#46495D;" parent="x8Gvvk_AcixEFcGuTGX2-15" vertex="1">
          <mxGeometry y="60" width="160" height="8" as="geometry" />
        </mxCell>
        <mxCell id="x8Gvvk_AcixEFcGuTGX2-18" value="+ method(type): type" style="text;strokeColor=none;fillColor=none;align=left;verticalAlign=top;spacingLeft=4;spacingRight=4;overflow=hidden;rotatable=0;points=[[0,0.5],[1,0.5]];portConstraint=eastwest;whiteSpace=wrap;html=1;fontColor=#46495D;" parent="x8Gvvk_AcixEFcGuTGX2-15" vertex="1">
          <mxGeometry y="68" width="160" height="26" as="geometry" />
        </mxCell>
        <mxCell id="x8Gvvk_AcixEFcGuTGX2-19" value="PassagemAerea" style="swimlane;fontStyle=1;align=center;verticalAlign=top;childLayout=stackLayout;horizontal=1;startSize=26;horizontalStack=0;resizeParent=1;resizeParentMax=0;resizeLast=0;collapsible=1;marginBottom=0;whiteSpace=wrap;html=1;rounded=1;strokeColor=#788AA3;fontColor=#46495D;fillColor=#B2C9AB;" parent="1" vertex="1">
          <mxGeometry x="180" y="669" width="160" height="124" as="geometry" />
        </mxCell>
        <mxCell id="x8Gvvk_AcixEFcGuTGX2-20" value="&lt;font color=&quot;#000000&quot;&gt;+ aeroportoPartida: String&lt;br&gt;+ aeroportoChegada: String&lt;br&gt;+ IATAPartida: String&lt;br&gt;+ IATADestino: String&lt;br&gt;&lt;br&gt;&lt;br&gt;&lt;/font&gt;" style="text;strokeColor=none;fillColor=none;align=left;verticalAlign=top;spacingLeft=4;spacingRight=4;overflow=hidden;rotatable=0;points=[[0,0.5],[1,0.5]];portConstraint=eastwest;whiteSpace=wrap;html=1;fontColor=#46495D;" parent="x8Gvvk_AcixEFcGuTGX2-19" vertex="1">
          <mxGeometry y="26" width="160" height="64" as="geometry" />
        </mxCell>
        <mxCell id="x8Gvvk_AcixEFcGuTGX2-21" value="" style="line;strokeWidth=1;fillColor=none;align=left;verticalAlign=middle;spacingTop=-1;spacingLeft=3;spacingRight=3;rotatable=0;labelPosition=right;points=[];portConstraint=eastwest;strokeColor=inherit;rounded=1;fontColor=#46495D;" parent="x8Gvvk_AcixEFcGuTGX2-19" vertex="1">
          <mxGeometry y="90" width="160" height="8" as="geometry" />
        </mxCell>
        <mxCell id="x8Gvvk_AcixEFcGuTGX2-22" value="+ method(type): type" style="text;strokeColor=none;fillColor=none;align=left;verticalAlign=top;spacingLeft=4;spacingRight=4;overflow=hidden;rotatable=0;points=[[0,0.5],[1,0.5]];portConstraint=eastwest;whiteSpace=wrap;html=1;fontColor=#46495D;" parent="x8Gvvk_AcixEFcGuTGX2-19" vertex="1">
          <mxGeometry y="98" width="160" height="26" as="geometry" />
        </mxCell>
        <mxCell id="x8Gvvk_AcixEFcGuTGX2-26" value="" style="html=1;verticalAlign=bottom;endArrow=block;curved=0;rounded=0;strokeColor=#788AA3;fontColor=#46495D;fillColor=#B2C9AB;entryX=0.498;entryY=0.988;entryDx=0;entryDy=0;entryPerimeter=0;exitX=1.003;exitY=0.416;exitDx=0;exitDy=0;exitPerimeter=0;" parent="1" source="x8Gvvk_AcixEFcGuTGX2-16" target="x8Gvvk_AcixEFcGuTGX2-13" edge="1">
          <mxGeometry width="80" relative="1" as="geometry">
            <mxPoint x="117" y="669" as="sourcePoint" />
            <mxPoint x="197" y="669" as="targetPoint" />
            <Array as="points">
              <mxPoint x="85" y="709" />
            </Array>
          </mxGeometry>
        </mxCell>
        <mxCell id="x8Gvvk_AcixEFcGuTGX2-29" value="" style="endArrow=none;html=1;edgeStyle=orthogonalEdgeStyle;rounded=1;strokeColor=#788AA3;fontColor=#46495D;fillColor=#B2C9AB;entryX=0.001;entryY=0.217;entryDx=0;entryDy=0;entryPerimeter=0;" parent="1" target="x8Gvvk_AcixEFcGuTGX2-20" edge="1">
          <mxGeometry relative="1" as="geometry">
            <mxPoint x="77" y="709" as="sourcePoint" />
            <mxPoint x="167" y="659" as="targetPoint" />
          </mxGeometry>
        </mxCell>
        <mxCell id="x8Gvvk_AcixEFcGuTGX2-30" value="" style="edgeLabel;resizable=0;html=1;align=left;verticalAlign=bottom;rounded=1;strokeColor=#788AA3;fontColor=#46495D;fillColor=#B2C9AB;" parent="x8Gvvk_AcixEFcGuTGX2-29" connectable="0" vertex="1">
          <mxGeometry x="-1" relative="1" as="geometry" />
        </mxCell>
        <mxCell id="x8Gvvk_AcixEFcGuTGX2-31" value="" style="edgeLabel;resizable=0;html=1;align=right;verticalAlign=bottom;rounded=1;strokeColor=#788AA3;fontColor=#46495D;fillColor=#B2C9AB;" parent="x8Gvvk_AcixEFcGuTGX2-29" connectable="0" vertex="1">
          <mxGeometry x="1" relative="1" as="geometry" />
        </mxCell>
        <mxCell id="x8Gvvk_AcixEFcGuTGX2-32" value="Local" style="swimlane;fontStyle=1;align=center;verticalAlign=top;childLayout=stackLayout;horizontal=1;startSize=26;horizontalStack=0;resizeParent=1;resizeParentMax=0;resizeLast=0;collapsible=1;marginBottom=0;whiteSpace=wrap;html=1;rounded=1;strokeColor=#788AA3;fontColor=#46495D;fillColor=#B2C9AB;" parent="1" vertex="1">
          <mxGeometry x="-70" y="298" width="170" height="120" as="geometry" />
        </mxCell>
        <mxCell id="x8Gvvk_AcixEFcGuTGX2-33" value="&lt;font color=&quot;#000000&quot;&gt;+ int idDestino&lt;br&gt;+ String nome&lt;br&gt;+ byte avaliacao&lt;br&gt;&lt;/font&gt;" style="text;strokeColor=none;fillColor=none;align=left;verticalAlign=top;spacingLeft=4;spacingRight=4;overflow=hidden;rotatable=0;points=[[0,0.5],[1,0.5]];portConstraint=eastwest;whiteSpace=wrap;html=1;fontColor=#46495D;" parent="x8Gvvk_AcixEFcGuTGX2-32" vertex="1">
          <mxGeometry y="26" width="170" height="54" as="geometry" />
        </mxCell>
        <mxCell id="x8Gvvk_AcixEFcGuTGX2-34" value="" style="line;strokeWidth=1;fillColor=none;align=left;verticalAlign=middle;spacingTop=-1;spacingLeft=3;spacingRight=3;rotatable=0;labelPosition=right;points=[];portConstraint=eastwest;strokeColor=inherit;rounded=1;fontColor=#46495D;" parent="x8Gvvk_AcixEFcGuTGX2-32" vertex="1">
          <mxGeometry y="80" width="170" height="8" as="geometry" />
        </mxCell>
        <mxCell id="x8Gvvk_AcixEFcGuTGX2-35" value="&lt;font color=&quot;#000000&quot;&gt;+ avaliar(byte avaliacao): void&lt;/font&gt;" style="text;strokeColor=none;fillColor=none;align=left;verticalAlign=top;spacingLeft=4;spacingRight=4;overflow=hidden;rotatable=0;points=[[0,0.5],[1,0.5]];portConstraint=eastwest;whiteSpace=wrap;html=1;fontColor=#46495D;" parent="x8Gvvk_AcixEFcGuTGX2-32" vertex="1">
          <mxGeometry y="88" width="170" height="32" as="geometry" />
        </mxCell>
        <mxCell id="x8Gvvk_AcixEFcGuTGX2-36" value="AluguelCarro" style="swimlane;fontStyle=1;align=center;verticalAlign=top;childLayout=stackLayout;horizontal=1;startSize=26;horizontalStack=0;resizeParent=1;resizeParentMax=0;resizeLast=0;collapsible=1;marginBottom=0;whiteSpace=wrap;html=1;rounded=1;strokeColor=#788AA3;fontColor=#46495D;fillColor=#B2C9AB;" parent="1" vertex="1">
          <mxGeometry x="515" y="300" width="170" height="194" as="geometry" />
        </mxCell>
        <mxCell id="x8Gvvk_AcixEFcGuTGX2-37" value="&lt;font color=&quot;#000000&quot;&gt;+ idAluguelCarro: int&lt;br&gt;+ modeloCarro: String&lt;br&gt;+ empresa: String&lt;br&gt;+ retirada: LocalDateTime&lt;br&gt;+ devolucao: LocalDateTime&lt;br&gt;+ enderecoRetirada: String&lt;br&gt;+ endereco: String&lt;br&gt;+ diaria: double&lt;br&gt;+ seguro: Seguro&lt;br&gt;&lt;/font&gt;" style="text;strokeColor=none;fillColor=none;align=left;verticalAlign=top;spacingLeft=4;spacingRight=4;overflow=hidden;rotatable=0;points=[[0,0.5],[1,0.5]];portConstraint=eastwest;whiteSpace=wrap;html=1;fontColor=#46495D;" parent="x8Gvvk_AcixEFcGuTGX2-36" vertex="1">
          <mxGeometry y="26" width="170" height="134" as="geometry" />
        </mxCell>
        <mxCell id="x8Gvvk_AcixEFcGuTGX2-38" value="" style="line;strokeWidth=1;fillColor=none;align=left;verticalAlign=middle;spacingTop=-1;spacingLeft=3;spacingRight=3;rotatable=0;labelPosition=right;points=[];portConstraint=eastwest;strokeColor=inherit;rounded=1;fontColor=#46495D;" parent="x8Gvvk_AcixEFcGuTGX2-36" vertex="1">
          <mxGeometry y="160" width="170" height="8" as="geometry" />
        </mxCell>
        <mxCell id="x8Gvvk_AcixEFcGuTGX2-39" value="+ method(type): type" style="text;strokeColor=none;fillColor=none;align=left;verticalAlign=top;spacingLeft=4;spacingRight=4;overflow=hidden;rotatable=0;points=[[0,0.5],[1,0.5]];portConstraint=eastwest;whiteSpace=wrap;html=1;fontColor=#46495D;" parent="x8Gvvk_AcixEFcGuTGX2-36" vertex="1">
          <mxGeometry y="168" width="170" height="26" as="geometry" />
        </mxCell>
        <mxCell id="x8Gvvk_AcixEFcGuTGX2-40" value="Atividade" style="swimlane;fontStyle=1;align=center;verticalAlign=top;childLayout=stackLayout;horizontal=1;startSize=26;horizontalStack=0;resizeParent=1;resizeParentMax=0;resizeLast=0;collapsible=1;marginBottom=0;whiteSpace=wrap;html=1;rounded=1;strokeColor=#788AA3;fontColor=#46495D;fillColor=#B2C9AB;" parent="1" vertex="1">
          <mxGeometry x="230" y="-120" width="160" height="184" as="geometry" />
        </mxCell>
        <mxCell id="x8Gvvk_AcixEFcGuTGX2-41" value="&lt;font color=&quot;#000000&quot;&gt;+ int idAtividade&lt;br&gt;+ String nome&lt;br&gt;+ Usuario usuario&lt;br&gt;+ Local local&lt;br&gt;+ String endereÃ§o&lt;br&gt;+ LocalDateTime inicio&lt;br&gt;+ LocalDateTime fim&lt;br&gt;+ double preco&lt;br&gt;&lt;/font&gt;" style="text;strokeColor=none;fillColor=none;align=left;verticalAlign=top;spacingLeft=4;spacingRight=4;overflow=hidden;rotatable=0;points=[[0,0.5],[1,0.5]];portConstraint=eastwest;whiteSpace=wrap;html=1;fontColor=#46495D;" parent="x8Gvvk_AcixEFcGuTGX2-40" vertex="1">
          <mxGeometry y="26" width="160" height="124" as="geometry" />
        </mxCell>
        <mxCell id="x8Gvvk_AcixEFcGuTGX2-42" value="" style="line;strokeWidth=1;fillColor=none;align=left;verticalAlign=middle;spacingTop=-1;spacingLeft=3;spacingRight=3;rotatable=0;labelPosition=right;points=[];portConstraint=eastwest;strokeColor=inherit;rounded=1;fontColor=#46495D;" parent="x8Gvvk_AcixEFcGuTGX2-40" vertex="1">
          <mxGeometry y="150" width="160" height="8" as="geometry" />
        </mxCell>
        <mxCell id="x8Gvvk_AcixEFcGuTGX2-43" value="+ method(type): type" style="text;strokeColor=none;fillColor=none;align=left;verticalAlign=top;spacingLeft=4;spacingRight=4;overflow=hidden;rotatable=0;points=[[0,0.5],[1,0.5]];portConstraint=eastwest;whiteSpace=wrap;html=1;fontColor=#46495D;" parent="x8Gvvk_AcixEFcGuTGX2-40" vertex="1">
          <mxGeometry y="158" width="160" height="26" as="geometry" />
        </mxCell>
        <mxCell id="x8Gvvk_AcixEFcGuTGX2-44" value="Seguro" style="swimlane;fontStyle=1;align=center;verticalAlign=top;childLayout=stackLayout;horizontal=1;startSize=26;horizontalStack=0;resizeParent=1;resizeParentMax=0;resizeLast=0;collapsible=1;marginBottom=0;whiteSpace=wrap;html=1;rounded=1;strokeColor=#788AA3;fontColor=#46495D;fillColor=#B2C9AB;" parent="1" vertex="1">
          <mxGeometry x="230" y="500" width="250" height="94" as="geometry" />
        </mxCell>
        <mxCell id="x8Gvvk_AcixEFcGuTGX2-45" value="&lt;font color=&quot;#000000&quot;&gt;+ franquia: double&lt;br&gt;+ usuario: Usuario&lt;br&gt;&lt;/font&gt;" style="text;strokeColor=none;fillColor=none;align=left;verticalAlign=top;spacingLeft=4;spacingRight=4;overflow=hidden;rotatable=0;points=[[0,0.5],[1,0.5]];portConstraint=eastwest;whiteSpace=wrap;html=1;fontColor=#46495D;" parent="x8Gvvk_AcixEFcGuTGX2-44" vertex="1">
          <mxGeometry y="26" width="250" height="34" as="geometry" />
        </mxCell>
        <mxCell id="x8Gvvk_AcixEFcGuTGX2-46" value="" style="line;strokeWidth=1;fillColor=none;align=left;verticalAlign=middle;spacingTop=-1;spacingLeft=3;spacingRight=3;rotatable=0;labelPosition=right;points=[];portConstraint=eastwest;strokeColor=inherit;rounded=1;fontColor=#46495D;" parent="x8Gvvk_AcixEFcGuTGX2-44" vertex="1">
          <mxGeometry y="60" width="250" height="8" as="geometry" />
        </mxCell>
        <mxCell id="x8Gvvk_AcixEFcGuTGX2-47" value="&lt;font color=&quot;#000000&quot;&gt;- calcularFranquia(Usuario usuario): double&lt;/font&gt;" style="text;strokeColor=none;fillColor=none;align=left;verticalAlign=top;spacingLeft=4;spacingRight=4;overflow=hidden;rotatable=0;points=[[0,0.5],[1,0.5]];portConstraint=eastwest;whiteSpace=wrap;html=1;fontColor=#46495D;" parent="x8Gvvk_AcixEFcGuTGX2-44" vertex="1">
          <mxGeometry y="68" width="250" height="26" as="geometry" />
        </mxCell>
        <mxCell id="x8Gvvk_AcixEFcGuTGX2-54" value="Reserva" style="swimlane;fontStyle=1;align=center;verticalAlign=top;childLayout=stackLayout;horizontal=1;startSize=26;horizontalStack=0;resizeParent=1;resizeParentMax=0;resizeLast=0;collapsible=1;marginBottom=0;whiteSpace=wrap;html=1;rounded=1;strokeColor=#BD7000;fontColor=#000000;fillColor=#f0a30a;" parent="1" vertex="1">
          <mxGeometry x="-160" y="50" width="260" height="190" as="geometry" />
        </mxCell>
        <mxCell id="x8Gvvk_AcixEFcGuTGX2-55" value="&lt;font color=&quot;#000000&quot;&gt;+ idReserva: int&lt;br&gt;+ pacote: Pacote&lt;br&gt;+ Usuario usuario&lt;br&gt;+ entrada: LocalDateTime&lt;br&gt;+ saida: LocalDateTime&lt;br&gt;+ pagamento: Pagamento&lt;br&gt;+ descondo: double&lt;br&gt;+ preco: double&lt;br&gt;&lt;/font&gt;" style="text;strokeColor=none;fillColor=none;align=left;verticalAlign=top;spacingLeft=4;spacingRight=4;overflow=hidden;rotatable=0;points=[[0,0.5],[1,0.5]];portConstraint=eastwest;whiteSpace=wrap;html=1;fontColor=#46495D;" parent="x8Gvvk_AcixEFcGuTGX2-54" vertex="1">
          <mxGeometry y="26" width="260" height="124" as="geometry" />
        </mxCell>
        <mxCell id="x8Gvvk_AcixEFcGuTGX2-56" value="" style="line;strokeWidth=1;fillColor=none;align=left;verticalAlign=middle;spacingTop=-1;spacingLeft=3;spacingRight=3;rotatable=0;labelPosition=right;points=[];portConstraint=eastwest;strokeColor=inherit;rounded=1;fontColor=#46495D;" parent="x8Gvvk_AcixEFcGuTGX2-54" vertex="1">
          <mxGeometry y="150" width="260" height="8" as="geometry" />
        </mxCell>
        <mxCell id="x8Gvvk_AcixEFcGuTGX2-57" value="&lt;font color=&quot;#000000&quot;&gt;+ transferirReserva(Usuario usuario): boolean&lt;/font&gt;" style="text;strokeColor=none;fillColor=none;align=left;verticalAlign=top;spacingLeft=4;spacingRight=4;overflow=hidden;rotatable=0;points=[[0,0.5],[1,0.5]];portConstraint=eastwest;whiteSpace=wrap;html=1;fontColor=#46495D;" parent="x8Gvvk_AcixEFcGuTGX2-54" vertex="1">
          <mxGeometry y="158" width="260" height="32" as="geometry" />
        </mxCell>
        <mxCell id="x8Gvvk_AcixEFcGuTGX2-58" value="Pagamento" style="swimlane;fontStyle=1;align=center;verticalAlign=top;childLayout=stackLayout;horizontal=1;startSize=26;horizontalStack=0;resizeParent=1;resizeParentMax=0;resizeLast=0;collapsible=1;marginBottom=0;whiteSpace=wrap;html=1;rounded=1;strokeColor=#432D57;fontColor=#ffffff;fillColor=#76608a;" parent="1" vertex="1">
          <mxGeometry x="-110" y="-180" width="160" height="144" as="geometry" />
        </mxCell>
        <mxCell id="x8Gvvk_AcixEFcGuTGX2-59" value="&lt;font color=&quot;#000000&quot;&gt;+ idPagamento: int&lt;br&gt;+ usuario: Usuario&lt;br&gt;+ quantia: double&lt;br&gt;+ prazo: LocalDate&lt;br&gt;- status: StatusPagamento&lt;br&gt;&lt;/font&gt;" style="text;strokeColor=none;fillColor=none;align=left;verticalAlign=top;spacingLeft=4;spacingRight=4;overflow=hidden;rotatable=0;points=[[0,0.5],[1,0.5]];portConstraint=eastwest;whiteSpace=wrap;html=1;fontColor=#46495D;" parent="x8Gvvk_AcixEFcGuTGX2-58" vertex="1">
          <mxGeometry y="26" width="160" height="84" as="geometry" />
        </mxCell>
        <mxCell id="x8Gvvk_AcixEFcGuTGX2-60" value="" style="line;strokeWidth=1;fillColor=none;align=left;verticalAlign=middle;spacingTop=-1;spacingLeft=3;spacingRight=3;rotatable=0;labelPosition=right;points=[];portConstraint=eastwest;strokeColor=inherit;rounded=1;fontColor=#46495D;" parent="x8Gvvk_AcixEFcGuTGX2-58" vertex="1">
          <mxGeometry y="110" width="160" height="8" as="geometry" />
        </mxCell>
        <mxCell id="x8Gvvk_AcixEFcGuTGX2-61" value="+ method(type): type" style="text;strokeColor=none;fillColor=none;align=left;verticalAlign=top;spacingLeft=4;spacingRight=4;overflow=hidden;rotatable=0;points=[[0,0.5],[1,0.5]];portConstraint=eastwest;whiteSpace=wrap;html=1;fontColor=#46495D;" parent="x8Gvvk_AcixEFcGuTGX2-58" vertex="1">
          <mxGeometry y="118" width="160" height="26" as="geometry" />
        </mxCell>
        <mxCell id="x8Gvvk_AcixEFcGuTGX2-62" value="&amp;lt;&amp;lt;Abstract&amp;gt;&amp;gt;&lt;br&gt;&lt;i&gt;Usuario&lt;/i&gt;" style="swimlane;fontStyle=1;align=center;verticalAlign=top;childLayout=stackLayout;horizontal=1;startSize=40;horizontalStack=0;resizeParent=1;resizeParentMax=0;resizeLast=0;collapsible=1;marginBottom=0;whiteSpace=wrap;html=1;rounded=1;strokeColor=#A50040;fillColor=#d80073;fontColor=#ffffff;" parent="1" vertex="1">
          <mxGeometry x="-570" y="-20" width="300" height="330" as="geometry" />
        </mxCell>
        <mxCell id="x8Gvvk_AcixEFcGuTGX2-63" value="&lt;font color=&quot;#000000&quot;&gt;+ idUsuario: int&lt;br&gt;+ nome: String&lt;br&gt;+ nascimento: LocalDate&lt;br&gt;+ rg: String&lt;br&gt;+ cpf: String&lt;br&gt;+ email: String&lt;br&gt;+ senha: String&lt;br&gt;+ celular: String&lt;br&gt;+ telefoneResidencial: String&lt;br&gt;+ endereco: String&lt;br&gt;&lt;/font&gt;" style="text;strokeColor=none;fillColor=none;align=left;verticalAlign=top;spacingLeft=4;spacingRight=4;overflow=hidden;rotatable=0;points=[[0,0.5],[1,0.5]];portConstraint=eastwest;whiteSpace=wrap;html=1;fontColor=#46495D;" parent="x8Gvvk_AcixEFcGuTGX2-62" vertex="1">
          <mxGeometry y="40" width="300" height="150" as="geometry" />
        </mxCell>
        <mxCell id="x8Gvvk_AcixEFcGuTGX2-64" value="" style="line;strokeWidth=1;fillColor=none;align=left;verticalAlign=middle;spacingTop=-1;spacingLeft=3;spacingRight=3;rotatable=0;labelPosition=right;points=[];portConstraint=eastwest;strokeColor=inherit;rounded=1;fontColor=#46495D;" parent="x8Gvvk_AcixEFcGuTGX2-62" vertex="1">
          <mxGeometry y="190" width="300" height="8" as="geometry" />
        </mxCell>
        <mxCell id="x8Gvvk_AcixEFcGuTGX2-65" value="&lt;font color=&quot;#000000&quot;&gt;+ atualizarEmail(String emailAtual, String senha, String novoEmail): boolean&lt;br&gt;+ atualizarSenha(String email, String senhaAtual, String novaSenha): boolean&lt;br&gt;+ atualizarTelefone(String email, String senha, String novoTelefone): boolean&lt;br&gt;+ atualizarEndereco(String email, String senha, String novoEndereco): boolean&lt;/font&gt;" style="text;strokeColor=none;fillColor=none;align=left;verticalAlign=top;spacingLeft=4;spacingRight=4;overflow=hidden;rotatable=0;points=[[0,0.5],[1,0.5]];portConstraint=eastwest;whiteSpace=wrap;html=1;fontColor=#46495D;" parent="x8Gvvk_AcixEFcGuTGX2-62" vertex="1">
          <mxGeometry y="198" width="300" height="132" as="geometry" />
        </mxCell>
        <mxCell id="x8Gvvk_AcixEFcGuTGX2-66" value="Cliente" style="swimlane;fontStyle=1;align=center;verticalAlign=top;childLayout=stackLayout;horizontal=1;startSize=26;horizontalStack=0;resizeParent=1;resizeParentMax=0;resizeLast=0;collapsible=1;marginBottom=0;whiteSpace=wrap;html=1;rounded=1;strokeColor=#A50040;fontColor=#ffffff;fillColor=#d80073;" parent="1" vertex="1">
          <mxGeometry x="-360" y="390" width="180" height="154" as="geometry" />
        </mxCell>
        <mxCell id="x8Gvvk_AcixEFcGuTGX2-67" value="&lt;font color=&quot;#000000&quot;&gt;+ numeroCartao: String&lt;br&gt;+ validade: LocalDate&lt;br&gt;+ cvv: int&lt;br&gt;+ nomeCartao: String&lt;br&gt;+ reservas: ArrayList&amp;lt;Reserva&amp;gt;&lt;br&gt;+ dataRegistro: LocalDate&lt;/font&gt;" style="text;strokeColor=none;fillColor=none;align=left;verticalAlign=top;spacingLeft=4;spacingRight=4;overflow=hidden;rotatable=0;points=[[0,0.5],[1,0.5]];portConstraint=eastwest;whiteSpace=wrap;html=1;fontColor=#46495D;" parent="x8Gvvk_AcixEFcGuTGX2-66" vertex="1">
          <mxGeometry y="26" width="180" height="94" as="geometry" />
        </mxCell>
        <mxCell id="x8Gvvk_AcixEFcGuTGX2-68" value="" style="line;strokeWidth=1;fillColor=none;align=left;verticalAlign=middle;spacingTop=-1;spacingLeft=3;spacingRight=3;rotatable=0;labelPosition=right;points=[];portConstraint=eastwest;strokeColor=inherit;rounded=1;fontColor=#46495D;" parent="x8Gvvk_AcixEFcGuTGX2-66" vertex="1">
          <mxGeometry y="120" width="180" height="8" as="geometry" />
        </mxCell>
        <mxCell id="x8Gvvk_AcixEFcGuTGX2-69" value="+ method(type): type" style="text;strokeColor=none;fillColor=none;align=left;verticalAlign=top;spacingLeft=4;spacingRight=4;overflow=hidden;rotatable=0;points=[[0,0.5],[1,0.5]];portConstraint=eastwest;whiteSpace=wrap;html=1;fontColor=#46495D;" parent="x8Gvvk_AcixEFcGuTGX2-66" vertex="1">
          <mxGeometry y="128" width="180" height="26" as="geometry" />
        </mxCell>
        <mxCell id="x8Gvvk_AcixEFcGuTGX2-70" value="Funcionario" style="swimlane;fontStyle=1;align=center;verticalAlign=top;childLayout=stackLayout;horizontal=1;startSize=26;horizontalStack=0;resizeParent=1;resizeParentMax=0;resizeLast=0;collapsible=1;marginBottom=0;whiteSpace=wrap;html=1;rounded=1;strokeColor=#A50040;fontColor=#ffffff;fillColor=#d80073;" parent="1" vertex="1">
          <mxGeometry x="-650" y="390" width="160" height="94" as="geometry" />
        </mxCell>
        <mxCell id="x8Gvvk_AcixEFcGuTGX2-71" value="+ cargo: Cargo&lt;br&gt;+ localizacao: Localizacao" style="text;strokeColor=none;fillColor=none;align=left;verticalAlign=top;spacingLeft=4;spacingRight=4;overflow=hidden;rotatable=0;points=[[0,0.5],[1,0.5]];portConstraint=eastwest;whiteSpace=wrap;html=1;fontColor=#46495D;" parent="x8Gvvk_AcixEFcGuTGX2-70" vertex="1">
          <mxGeometry y="26" width="160" height="34" as="geometry" />
        </mxCell>
        <mxCell id="x8Gvvk_AcixEFcGuTGX2-72" value="" style="line;strokeWidth=1;fillColor=none;align=left;verticalAlign=middle;spacingTop=-1;spacingLeft=3;spacingRight=3;rotatable=0;labelPosition=right;points=[];portConstraint=eastwest;strokeColor=inherit;rounded=1;fontColor=#46495D;" parent="x8Gvvk_AcixEFcGuTGX2-70" vertex="1">
          <mxGeometry y="60" width="160" height="8" as="geometry" />
        </mxCell>
        <mxCell id="x8Gvvk_AcixEFcGuTGX2-73" value="+ method(type): type" style="text;strokeColor=none;fillColor=none;align=left;verticalAlign=top;spacingLeft=4;spacingRight=4;overflow=hidden;rotatable=0;points=[[0,0.5],[1,0.5]];portConstraint=eastwest;whiteSpace=wrap;html=1;fontColor=#46495D;" parent="x8Gvvk_AcixEFcGuTGX2-70" vertex="1">
          <mxGeometry y="68" width="160" height="26" as="geometry" />
        </mxCell>
        <mxCell id="x8Gvvk_AcixEFcGuTGX2-78" value="&amp;lt;&amp;lt;Enumeration&amp;gt;&amp;gt;&lt;br&gt;Cargo" style="swimlane;fontStyle=1;align=center;verticalAlign=top;childLayout=stackLayout;horizontal=1;startSize=36;horizontalStack=0;resizeParent=1;resizeParentMax=0;resizeLast=0;collapsible=1;marginBottom=0;whiteSpace=wrap;html=1;rounded=1;strokeColor=#A50040;fontColor=#ffffff;fillColor=#d80073;" parent="1" vertex="1">
          <mxGeometry x="-650" y="554" width="160" height="90" as="geometry" />
        </mxCell>
        <mxCell id="x8Gvvk_AcixEFcGuTGX2-79" value="CORRETOR&lt;br&gt;GERENTE&lt;br&gt;DIRETOR" style="text;strokeColor=none;fillColor=none;align=left;verticalAlign=top;spacingLeft=4;spacingRight=4;overflow=hidden;rotatable=0;points=[[0,0.5],[1,0.5]];portConstraint=eastwest;whiteSpace=wrap;html=1;fontColor=#46495D;" parent="x8Gvvk_AcixEFcGuTGX2-78" vertex="1">
          <mxGeometry y="36" width="160" height="54" as="geometry" />
        </mxCell>
        <mxCell id="x8Gvvk_AcixEFcGuTGX2-88" value="" style="endArrow=open;endFill=1;endSize=12;html=1;rounded=1;strokeColor=#788AA3;fontColor=#46495D;fillColor=#B2C9AB;entryX=1.004;entryY=0.824;entryDx=0;entryDy=0;entryPerimeter=0;exitX=-0.006;exitY=0.098;exitDx=0;exitDy=0;exitPerimeter=0;" parent="1" source="x8Gvvk_AcixEFcGuTGX2-2" target="x8Gvvk_AcixEFcGuTGX2-55" edge="1">
          <mxGeometry width="160" relative="1" as="geometry">
            <mxPoint x="140" y="100" as="sourcePoint" />
            <mxPoint x="300" y="100" as="targetPoint" />
          </mxGeometry>
        </mxCell>
        <mxCell id="x8Gvvk_AcixEFcGuTGX2-89" value="" style="endArrow=open;endFill=1;endSize=12;html=1;rounded=1;strokeColor=#788AA3;fontColor=#46495D;fillColor=#B2C9AB;exitX=0.75;exitY=0;exitDx=0;exitDy=0;" parent="1" source="x8Gvvk_AcixEFcGuTGX2-32" edge="1">
          <mxGeometry width="160" relative="1" as="geometry">
            <mxPoint x="20" y="270" as="sourcePoint" />
            <mxPoint x="180" y="270" as="targetPoint" />
            <Array as="points">
              <mxPoint x="60" y="270" />
            </Array>
          </mxGeometry>
        </mxCell>
        <mxCell id="x8Gvvk_AcixEFcGuTGX2-90" value="" style="endArrow=open;endFill=1;endSize=12;html=1;rounded=1;strokeColor=#788AA3;fontColor=#46495D;fillColor=#B2C9AB;exitX=0.167;exitY=1.096;exitDx=0;exitDy=0;exitPerimeter=0;entryX=-0.014;entryY=0.168;entryDx=0;entryDy=0;entryPerimeter=0;" parent="1" source="x8Gvvk_AcixEFcGuTGX2-35" target="x8Gvvk_AcixEFcGuTGX2-11" edge="1">
          <mxGeometry width="160" relative="1" as="geometry">
            <mxPoint x="20" y="450" as="sourcePoint" />
            <mxPoint x="180" y="450" as="targetPoint" />
            <Array as="points">
              <mxPoint x="-42" y="520" />
            </Array>
          </mxGeometry>
        </mxCell>
        <mxCell id="x8Gvvk_AcixEFcGuTGX2-91" value="" style="endArrow=open;endFill=1;endSize=12;html=1;rounded=1;strokeColor=#788AA3;fontColor=#46495D;fillColor=#B2C9AB;exitX=0.75;exitY=0;exitDx=0;exitDy=0;entryX=0.378;entryY=1.017;entryDx=0;entryDy=0;entryPerimeter=0;" parent="1" source="x8Gvvk_AcixEFcGuTGX2-10" target="x8Gvvk_AcixEFcGuTGX2-4" edge="1">
          <mxGeometry width="160" relative="1" as="geometry">
            <mxPoint x="200" y="418" as="sourcePoint" />
            <mxPoint x="360" y="418" as="targetPoint" />
            <Array as="points">
              <mxPoint x="125" y="430" />
              <mxPoint x="278" y="430" />
            </Array>
          </mxGeometry>
        </mxCell>
        <mxCell id="x8Gvvk_AcixEFcGuTGX2-92" value="" style="endArrow=open;endFill=1;endSize=12;html=1;rounded=1;strokeColor=#788AA3;fontColor=#46495D;fillColor=#B2C9AB;exitX=0.5;exitY=0;exitDx=0;exitDy=0;entryX=0.678;entryY=1.003;entryDx=0;entryDy=0;entryPerimeter=0;" parent="1" source="x8Gvvk_AcixEFcGuTGX2-44" target="x8Gvvk_AcixEFcGuTGX2-4" edge="1">
          <mxGeometry width="160" relative="1" as="geometry">
            <mxPoint x="340" y="420" as="sourcePoint" />
            <mxPoint x="500" y="420" as="targetPoint" />
          </mxGeometry>
        </mxCell>
        <mxCell id="x8Gvvk_AcixEFcGuTGX2-93" value="" style="endArrow=open;endFill=1;endSize=12;html=1;rounded=1;strokeColor=#788AA3;fontColor=#46495D;fillColor=#B2C9AB;entryX=0.994;entryY=0.578;entryDx=0;entryDy=0;entryPerimeter=0;exitX=0.5;exitY=0;exitDx=0;exitDy=0;" parent="1" source="x8Gvvk_AcixEFcGuTGX2-36" target="x8Gvvk_AcixEFcGuTGX2-2" edge="1">
          <mxGeometry width="160" relative="1" as="geometry">
            <mxPoint x="334" y="90" as="sourcePoint" />
            <mxPoint x="494" y="90" as="targetPoint" />
            <Array as="points">
              <mxPoint x="600" y="240" />
            </Array>
          </mxGeometry>
        </mxCell>
        <mxCell id="x8Gvvk_AcixEFcGuTGX2-94" value="" style="endArrow=open;endFill=1;endSize=12;html=1;rounded=1;strokeColor=#788AA3;fontColor=#46495D;fillColor=#B2C9AB;entryX=0.5;entryY=0;entryDx=0;entryDy=0;exitX=0.494;exitY=1.007;exitDx=0;exitDy=0;exitPerimeter=0;" parent="1" source="x8Gvvk_AcixEFcGuTGX2-43" target="x8Gvvk_AcixEFcGuTGX2-1" edge="1">
          <mxGeometry width="160" relative="1" as="geometry">
            <mxPoint x="240" y="120" as="sourcePoint" />
            <mxPoint x="400" y="120" as="targetPoint" />
          </mxGeometry>
        </mxCell>
        <mxCell id="x8Gvvk_AcixEFcGuTGX2-95" value="" style="endArrow=open;endFill=1;endSize=12;html=1;rounded=1;strokeColor=#788AA3;fontColor=#46495D;fillColor=#B2C9AB;entryX=0.75;entryY=0;entryDx=0;entryDy=0;exitX=-0.009;exitY=0.667;exitDx=0;exitDy=0;exitPerimeter=0;" parent="1" source="x8Gvvk_AcixEFcGuTGX2-6" target="x8Gvvk_AcixEFcGuTGX2-1" edge="1">
          <mxGeometry width="160" relative="1" as="geometry">
            <mxPoint x="250" y="100" as="sourcePoint" />
            <mxPoint x="410" y="100" as="targetPoint" />
            <Array as="points">
              <mxPoint x="375" y="92" />
            </Array>
          </mxGeometry>
        </mxCell>
        <mxCell id="x8Gvvk_AcixEFcGuTGX2-96" value="" style="endArrow=open;endFill=1;endSize=12;html=1;rounded=1;strokeColor=#788AA3;fontColor=#46495D;fillColor=#B2C9AB;exitX=0.496;exitY=1.026;exitDx=0;exitDy=0;exitPerimeter=0;entryX=0.5;entryY=0;entryDx=0;entryDy=0;" parent="1" source="x8Gvvk_AcixEFcGuTGX2-61" target="x8Gvvk_AcixEFcGuTGX2-54" edge="1">
          <mxGeometry width="160" relative="1" as="geometry">
            <mxPoint x="-60" y="30" as="sourcePoint" />
            <mxPoint x="100" y="30" as="targetPoint" />
          </mxGeometry>
        </mxCell>
        <mxCell id="x8Gvvk_AcixEFcGuTGX2-97" value="" style="endArrow=open;endFill=1;endSize=12;html=1;rounded=1;strokeColor=#788AA3;fontColor=#46495D;fillColor=#B2C9AB;exitX=0.502;exitY=1.02;exitDx=0;exitDy=0;exitPerimeter=0;entryX=0.5;entryY=0;entryDx=0;entryDy=0;" parent="1" source="x8Gvvk_AcixEFcGuTGX2-73" target="x8Gvvk_AcixEFcGuTGX2-78" edge="1">
          <mxGeometry width="160" relative="1" as="geometry">
            <mxPoint x="-430" y="500" as="sourcePoint" />
            <mxPoint x="-270" y="500" as="targetPoint" />
          </mxGeometry>
        </mxCell>
        <mxCell id="x8Gvvk_AcixEFcGuTGX2-98" value="" style="endArrow=open;endFill=1;endSize=12;html=1;rounded=1;strokeColor=#788AA3;fontColor=#46495D;fillColor=#B2C9AB;exitX=1.005;exitY=0.935;exitDx=0;exitDy=0;exitPerimeter=0;entryX=-0.001;entryY=0.667;entryDx=0;entryDy=0;entryPerimeter=0;" parent="1" source="x8Gvvk_AcixEFcGuTGX2-63" target="x8Gvvk_AcixEFcGuTGX2-55" edge="1">
          <mxGeometry width="160" relative="1" as="geometry">
            <mxPoint x="-280" y="170" as="sourcePoint" />
            <mxPoint x="-120" y="170" as="targetPoint" />
          </mxGeometry>
        </mxCell>
        <mxCell id="x8Gvvk_AcixEFcGuTGX2-99" value="" style="html=1;verticalAlign=bottom;endArrow=block;curved=0;rounded=0;strokeColor=#788AA3;fontColor=#46495D;fillColor=#B2C9AB;entryX=0.477;entryY=1.014;entryDx=0;entryDy=0;entryPerimeter=0;exitX=1.003;exitY=0.997;exitDx=0;exitDy=0;exitPerimeter=0;" parent="1" source="x8Gvvk_AcixEFcGuTGX2-71" target="x8Gvvk_AcixEFcGuTGX2-65" edge="1">
          <mxGeometry width="80" relative="1" as="geometry">
            <mxPoint x="-490" y="445" as="sourcePoint" />
            <mxPoint x="-395" y="390" as="targetPoint" />
            <Array as="points">
              <mxPoint x="-427" y="450" />
            </Array>
          </mxGeometry>
        </mxCell>
        <mxCell id="x8Gvvk_AcixEFcGuTGX2-100" value="" style="endArrow=none;html=1;edgeStyle=orthogonalEdgeStyle;rounded=1;strokeColor=#788AA3;fontColor=#46495D;fillColor=#B2C9AB;entryX=0.001;entryY=0.217;entryDx=0;entryDy=0;entryPerimeter=0;" parent="1" edge="1">
          <mxGeometry relative="1" as="geometry">
            <mxPoint x="-463" y="450" as="sourcePoint" />
            <mxPoint x="-360" y="450" as="targetPoint" />
          </mxGeometry>
        </mxCell>
        <mxCell id="x8Gvvk_AcixEFcGuTGX2-101" value="" style="edgeLabel;resizable=0;html=1;align=left;verticalAlign=bottom;rounded=1;strokeColor=#788AA3;fontColor=#46495D;fillColor=#B2C9AB;" parent="x8Gvvk_AcixEFcGuTGX2-100" connectable="0" vertex="1">
          <mxGeometry x="-1" relative="1" as="geometry" />
        </mxCell>
        <mxCell id="x8Gvvk_AcixEFcGuTGX2-102" value="" style="edgeLabel;resizable=0;html=1;align=right;verticalAlign=bottom;rounded=1;strokeColor=#788AA3;fontColor=#46495D;fillColor=#B2C9AB;" parent="x8Gvvk_AcixEFcGuTGX2-100" connectable="0" vertex="1">
          <mxGeometry x="1" relative="1" as="geometry" />
        </mxCell>
      </root>
    </mxGraphModel>
  </diagram>
</mxfile>
